<mxfile host="Electron" agent="Mozilla/5.0 (Macintosh; Intel Mac OS X 10_15_7) AppleWebKit/537.36 (KHTML, like Gecko) draw.io/26.0.16 Chrome/132.0.6834.196 Electron/34.2.0 Safari/537.36" version="26.0.16">
  <diagram name="Page-1" id="IZfA_pyWY1KbGDgCc4sa">
    <mxGraphModel dx="1289" dy="703" grid="1" gridSize="10" guides="1" tooltips="1" connect="1" arrows="1" fold="1" page="1" pageScale="1" pageWidth="850" pageHeight="1100" math="0" shadow="0">
      <root>
        <mxCell id="0" />
        <mxCell id="1" parent="0" />
        <mxCell id="5u93TieJ40x7zP37w9pg-2" value="" style="rounded=0;whiteSpace=wrap;html=1;" vertex="1" parent="1">
          <mxGeometry x="250" y="10" width="470" height="660" as="geometry" />
        </mxCell>
        <mxCell id="5u93TieJ40x7zP37w9pg-3" value="User" style="shape=umlActor;verticalLabelPosition=bottom;verticalAlign=top;html=1;" vertex="1" parent="1">
          <mxGeometry x="140" y="353" width="30" height="60" as="geometry" />
        </mxCell>
        <mxCell id="5u93TieJ40x7zP37w9pg-4" value="Enter Stock Symbol" style="ellipse;whiteSpace=wrap;html=1;" vertex="1" parent="1">
          <mxGeometry x="350" y="50" width="140" height="70" as="geometry" />
        </mxCell>
        <mxCell id="5u93TieJ40x7zP37w9pg-5" value="Chart Type Selection" style="ellipse;whiteSpace=wrap;html=1;" vertex="1" parent="1">
          <mxGeometry x="355" y="200" width="140" height="70" as="geometry" />
        </mxCell>
        <mxCell id="5u93TieJ40x7zP37w9pg-6" value="Time Series Selection" style="ellipse;whiteSpace=wrap;html=1;" vertex="1" parent="1">
          <mxGeometry x="360" y="300" width="140" height="70" as="geometry" />
        </mxCell>
        <mxCell id="5u93TieJ40x7zP37w9pg-7" value="Dates Selection" style="ellipse;whiteSpace=wrap;html=1;" vertex="1" parent="1">
          <mxGeometry x="360" y="430" width="140" height="70" as="geometry" />
        </mxCell>
        <mxCell id="5u93TieJ40x7zP37w9pg-8" value="Graph Generation" style="ellipse;whiteSpace=wrap;html=1;" vertex="1" parent="1">
          <mxGeometry x="360" y="550" width="140" height="70" as="geometry" />
        </mxCell>
        <mxCell id="5u93TieJ40x7zP37w9pg-9" value="&lt;b&gt;Stock Data Visualizer&lt;/b&gt;" style="text;html=1;align=center;verticalAlign=middle;whiteSpace=wrap;rounded=0;" vertex="1" parent="1">
          <mxGeometry x="450.65999999999997" y="10" width="130" height="30" as="geometry" />
        </mxCell>
        <mxCell id="5u93TieJ40x7zP37w9pg-11" value="Validate Symbol" style="ellipse;whiteSpace=wrap;html=1;" vertex="1" parent="1">
          <mxGeometry x="560" y="50" width="100" height="40" as="geometry" />
        </mxCell>
        <mxCell id="5u93TieJ40x7zP37w9pg-12" value="&amp;lt;&amp;lt;include&amp;gt;&amp;gt;" style="endArrow=open;endSize=12;dashed=1;html=1;rounded=0;entryX=0;entryY=0.5;entryDx=0;entryDy=0;exitX=1;exitY=0.5;exitDx=0;exitDy=0;" edge="1" parent="1" target="5u93TieJ40x7zP37w9pg-11" source="5u93TieJ40x7zP37w9pg-4">
          <mxGeometry x="-0.0041" width="160" relative="1" as="geometry">
            <mxPoint x="500" y="170" as="sourcePoint" />
            <mxPoint x="720" y="180" as="targetPoint" />
            <mxPoint as="offset" />
          </mxGeometry>
        </mxCell>
        <mxCell id="5u93TieJ40x7zP37w9pg-13" value="Display Symbol Error" style="ellipse;whiteSpace=wrap;html=1;" vertex="1" parent="1">
          <mxGeometry x="564.66" y="113.71000000000001" width="110" height="40" as="geometry" />
        </mxCell>
        <mxCell id="5u93TieJ40x7zP37w9pg-14" value="&amp;lt;&amp;lt;extend&amp;gt;&amp;gt;" style="endArrow=open;endSize=12;dashed=1;html=1;rounded=0;exitX=0;exitY=0.5;exitDx=0;exitDy=0;entryX=0.938;entryY=0.734;entryDx=0;entryDy=0;entryPerimeter=0;" edge="1" parent="1" source="5u93TieJ40x7zP37w9pg-13" target="5u93TieJ40x7zP37w9pg-4">
          <mxGeometry x="-0.0049" width="160" relative="1" as="geometry">
            <mxPoint x="670.66" y="123.71000000000001" as="sourcePoint" />
            <mxPoint x="410" y="40" as="targetPoint" />
            <mxPoint as="offset" />
          </mxGeometry>
        </mxCell>
        <mxCell id="5u93TieJ40x7zP37w9pg-15" value="Display Invalid Input Error" style="ellipse;whiteSpace=wrap;html=1;" vertex="1" parent="1">
          <mxGeometry x="470" y="150" width="130" height="40" as="geometry" />
        </mxCell>
        <mxCell id="5u93TieJ40x7zP37w9pg-16" value="&amp;lt;&amp;lt;extend&amp;gt;&amp;gt;" style="endArrow=open;endSize=12;dashed=1;html=1;rounded=0;exitX=0;exitY=0.5;exitDx=0;exitDy=0;entryX=0.772;entryY=0.897;entryDx=0;entryDy=0;entryPerimeter=0;" edge="1" parent="1" source="5u93TieJ40x7zP37w9pg-15" target="5u93TieJ40x7zP37w9pg-4">
          <mxGeometry x="-0.0049" width="160" relative="1" as="geometry">
            <mxPoint x="670.66" y="170" as="sourcePoint" />
            <mxPoint x="481" y="147.29" as="targetPoint" />
            <mxPoint as="offset" />
          </mxGeometry>
        </mxCell>
        <mxCell id="5u93TieJ40x7zP37w9pg-19" value="Display Invalid Input Error" style="ellipse;whiteSpace=wrap;html=1;" vertex="1" parent="1">
          <mxGeometry x="542" y="267" width="130" height="40" as="geometry" />
        </mxCell>
        <mxCell id="5u93TieJ40x7zP37w9pg-20" value="&amp;lt;&amp;lt;extend&amp;gt;&amp;gt;" style="endArrow=open;endSize=12;dashed=1;html=1;rounded=0;exitX=0;exitY=0.5;exitDx=0;exitDy=0;entryX=1;entryY=1;entryDx=0;entryDy=0;" edge="1" parent="1" source="5u93TieJ40x7zP37w9pg-19" target="5u93TieJ40x7zP37w9pg-5">
          <mxGeometry x="-0.0049" width="160" relative="1" as="geometry">
            <mxPoint x="742.66" y="287" as="sourcePoint" />
            <mxPoint x="530" y="230" as="targetPoint" />
            <mxPoint as="offset" />
          </mxGeometry>
        </mxCell>
        <mxCell id="5u93TieJ40x7zP37w9pg-21" value="Validate Chart Type" style="ellipse;whiteSpace=wrap;html=1;" vertex="1" parent="1">
          <mxGeometry x="574.66" y="210" width="100" height="40" as="geometry" />
        </mxCell>
        <mxCell id="5u93TieJ40x7zP37w9pg-22" value="&amp;lt;&amp;lt;include&amp;gt;&amp;gt;" style="endArrow=open;endSize=12;dashed=1;html=1;rounded=0;entryX=0;entryY=0.5;entryDx=0;entryDy=0;exitX=1;exitY=0.5;exitDx=0;exitDy=0;" edge="1" parent="1" target="5u93TieJ40x7zP37w9pg-21" source="5u93TieJ40x7zP37w9pg-5">
          <mxGeometry x="-0.0041" width="160" relative="1" as="geometry">
            <mxPoint x="504.66" y="245" as="sourcePoint" />
            <mxPoint x="734.66" y="340" as="targetPoint" />
            <mxPoint as="offset" />
          </mxGeometry>
        </mxCell>
        <mxCell id="5u93TieJ40x7zP37w9pg-23" value="Display Invalid Input Error" style="ellipse;whiteSpace=wrap;html=1;" vertex="1" parent="1">
          <mxGeometry x="548" y="370" width="130" height="40" as="geometry" />
        </mxCell>
        <mxCell id="5u93TieJ40x7zP37w9pg-24" value="&amp;lt;&amp;lt;extend&amp;gt;&amp;gt;" style="endArrow=open;endSize=12;dashed=1;html=1;rounded=0;exitX=0;exitY=0.5;exitDx=0;exitDy=0;entryX=1;entryY=1;entryDx=0;entryDy=0;" edge="1" parent="1" source="5u93TieJ40x7zP37w9pg-23">
          <mxGeometry x="-0.0049" width="160" relative="1" as="geometry">
            <mxPoint x="748.66" y="390" as="sourcePoint" />
            <mxPoint x="480" y="363" as="targetPoint" />
            <mxPoint as="offset" />
          </mxGeometry>
        </mxCell>
        <mxCell id="5u93TieJ40x7zP37w9pg-25" value="Validate Time Series Selection" style="ellipse;whiteSpace=wrap;html=1;" vertex="1" parent="1">
          <mxGeometry x="580.66" y="313" width="100" height="40" as="geometry" />
        </mxCell>
        <mxCell id="5u93TieJ40x7zP37w9pg-26" value="&amp;lt;&amp;lt;include&amp;gt;&amp;gt;" style="endArrow=open;endSize=12;dashed=1;html=1;rounded=0;entryX=0;entryY=0.5;entryDx=0;entryDy=0;exitX=1;exitY=0.5;exitDx=0;exitDy=0;" edge="1" parent="1" target="5u93TieJ40x7zP37w9pg-25">
          <mxGeometry x="-0.0041" width="160" relative="1" as="geometry">
            <mxPoint x="501" y="338" as="sourcePoint" />
            <mxPoint x="740.66" y="443" as="targetPoint" />
            <mxPoint as="offset" />
          </mxGeometry>
        </mxCell>
        <mxCell id="5u93TieJ40x7zP37w9pg-27" value="Display Invalid Input Error" style="ellipse;whiteSpace=wrap;html=1;" vertex="1" parent="1">
          <mxGeometry x="548" y="497" width="130" height="40" as="geometry" />
        </mxCell>
        <mxCell id="5u93TieJ40x7zP37w9pg-28" value="&amp;lt;&amp;lt;extend&amp;gt;&amp;gt;" style="endArrow=open;endSize=12;dashed=1;html=1;rounded=0;exitX=0;exitY=0.5;exitDx=0;exitDy=0;entryX=1;entryY=1;entryDx=0;entryDy=0;" edge="1" parent="1" source="5u93TieJ40x7zP37w9pg-27">
          <mxGeometry x="-0.0049" width="160" relative="1" as="geometry">
            <mxPoint x="748.66" y="517" as="sourcePoint" />
            <mxPoint x="480" y="490" as="targetPoint" />
            <mxPoint as="offset" />
          </mxGeometry>
        </mxCell>
        <mxCell id="5u93TieJ40x7zP37w9pg-29" value="Validate Dates Selection" style="ellipse;whiteSpace=wrap;html=1;" vertex="1" parent="1">
          <mxGeometry x="580.66" y="440" width="100" height="40" as="geometry" />
        </mxCell>
        <mxCell id="5u93TieJ40x7zP37w9pg-30" value="&amp;lt;&amp;lt;include&amp;gt;&amp;gt;" style="endArrow=open;endSize=12;dashed=1;html=1;rounded=0;entryX=0;entryY=0.5;entryDx=0;entryDy=0;exitX=1;exitY=0.5;exitDx=0;exitDy=0;" edge="1" parent="1" target="5u93TieJ40x7zP37w9pg-29">
          <mxGeometry x="-0.0041" width="160" relative="1" as="geometry">
            <mxPoint x="501" y="465" as="sourcePoint" />
            <mxPoint x="740.66" y="570" as="targetPoint" />
            <mxPoint as="offset" />
          </mxGeometry>
        </mxCell>
        <mxCell id="5u93TieJ40x7zP37w9pg-31" value="Display API connection Error" style="ellipse;whiteSpace=wrap;html=1;" vertex="1" parent="1">
          <mxGeometry x="320" y="150" width="140" height="40" as="geometry" />
        </mxCell>
        <mxCell id="5u93TieJ40x7zP37w9pg-32" value="&amp;lt;&amp;lt;extend&amp;gt;&amp;gt;" style="endArrow=open;endSize=12;dashed=1;html=1;rounded=0;exitX=0;exitY=0.5;exitDx=0;exitDy=0;entryX=0.251;entryY=0.942;entryDx=0;entryDy=0;entryPerimeter=0;" edge="1" parent="1" source="5u93TieJ40x7zP37w9pg-31" target="5u93TieJ40x7zP37w9pg-4">
          <mxGeometry x="-0.0049" width="160" relative="1" as="geometry">
            <mxPoint x="482.65999999999997" y="180" as="sourcePoint" />
            <mxPoint x="270" y="123" as="targetPoint" />
            <mxPoint as="offset" />
          </mxGeometry>
        </mxCell>
        <mxCell id="5u93TieJ40x7zP37w9pg-33" value="" style="endArrow=none;html=1;rounded=0;exitX=0.5;exitY=0.5;exitDx=0;exitDy=0;exitPerimeter=0;entryX=0;entryY=0.5;entryDx=0;entryDy=0;" edge="1" parent="1" source="5u93TieJ40x7zP37w9pg-3" target="5u93TieJ40x7zP37w9pg-4">
          <mxGeometry width="50" height="50" relative="1" as="geometry">
            <mxPoint x="120" y="350" as="sourcePoint" />
            <mxPoint x="170" y="300" as="targetPoint" />
          </mxGeometry>
        </mxCell>
        <mxCell id="5u93TieJ40x7zP37w9pg-34" value="" style="endArrow=none;html=1;rounded=0;exitX=0.5;exitY=0.5;exitDx=0;exitDy=0;exitPerimeter=0;entryX=0;entryY=0.5;entryDx=0;entryDy=0;" edge="1" parent="1" source="5u93TieJ40x7zP37w9pg-3" target="5u93TieJ40x7zP37w9pg-5">
          <mxGeometry width="50" height="50" relative="1" as="geometry">
            <mxPoint x="130" y="360" as="sourcePoint" />
            <mxPoint x="180" y="310" as="targetPoint" />
          </mxGeometry>
        </mxCell>
        <mxCell id="5u93TieJ40x7zP37w9pg-35" value="" style="endArrow=none;html=1;rounded=0;exitX=0.5;exitY=0.5;exitDx=0;exitDy=0;exitPerimeter=0;entryX=0;entryY=0.5;entryDx=0;entryDy=0;" edge="1" parent="1" source="5u93TieJ40x7zP37w9pg-3" target="5u93TieJ40x7zP37w9pg-6">
          <mxGeometry width="50" height="50" relative="1" as="geometry">
            <mxPoint x="140" y="370" as="sourcePoint" />
            <mxPoint x="190" y="320" as="targetPoint" />
          </mxGeometry>
        </mxCell>
        <mxCell id="5u93TieJ40x7zP37w9pg-36" value="" style="endArrow=none;html=1;rounded=0;exitX=0.5;exitY=0.5;exitDx=0;exitDy=0;exitPerimeter=0;entryX=0;entryY=0.5;entryDx=0;entryDy=0;" edge="1" parent="1" source="5u93TieJ40x7zP37w9pg-3" target="5u93TieJ40x7zP37w9pg-7">
          <mxGeometry width="50" height="50" relative="1" as="geometry">
            <mxPoint x="150" y="380" as="sourcePoint" />
            <mxPoint x="200" y="330" as="targetPoint" />
          </mxGeometry>
        </mxCell>
        <mxCell id="5u93TieJ40x7zP37w9pg-37" value="" style="endArrow=none;html=1;rounded=0;exitX=0.5;exitY=0.5;exitDx=0;exitDy=0;exitPerimeter=0;entryX=0;entryY=0.5;entryDx=0;entryDy=0;" edge="1" parent="1" source="5u93TieJ40x7zP37w9pg-3" target="5u93TieJ40x7zP37w9pg-8">
          <mxGeometry width="50" height="50" relative="1" as="geometry">
            <mxPoint x="160" y="390" as="sourcePoint" />
            <mxPoint x="210" y="340" as="targetPoint" />
          </mxGeometry>
        </mxCell>
      </root>
    </mxGraphModel>
  </diagram>
</mxfile>
